<?xml version="1.0" encoding="UTF-8"?>
<svg xmlns="http://www.w3.org/2000/svg" viewBox="0 0 32 32" role="img" aria-label="The Forge">
  <defs>
    <linearGradient id="forge-flame" x1="50%" y1="0%" x2="50%" y2="100%">
      <stop offset="0%" stop-color="#ea580c"/>
      <stop offset="100%" stop-color="#b45309"/>
    </linearGradient>
  </defs>
  <rect width="32" height="32" rx="8" fill="#faf8f5"/>
  <!-- Lucide-style flame, centered (24x24 artboard, translate 4,4) -->
  <g transform="translate(4 4)" fill="url(#forge-flame)">
    <path
      d="M8.5 14.5A2.5 2.5 0 0 0 11 12c0-1.38-.5-2-1-3-1.072-2.143-.224-4.054 2-6 .5 2.5 2 4.9 4 6.5 2 1.6 3 3.5 3 5.5a7 7 0 1 1-14 0c0-1.153.433-2.294 1-3a2.5 2.5 0 0 0 2.5 2.5z"
    />
  </g>
</svg>
